<svg width="457" height="84" viewBox="0 0 457 84" fill="none" xmlns="http://www.w3.org/2000/svg">
<path d="M6.805 6.385H0.05V1.975H19.265V6.385H12.51V27H6.805V6.385ZM22.7781 0.399998H27.8531V11.6C28.3198 10.69 29.0431 9.90833 30.0231 9.255C31.0031 8.60167 32.2631 8.275 33.8031 8.275C34.7131 8.275 35.5415 8.415 36.2881 8.695C37.0348 8.975 37.6881 9.395 38.2481 9.955C38.7848 10.5383 39.2048 11.285 39.5081 12.195C39.8115 13.0817 39.9631 14.1317 39.9631 15.345V27H34.8881V16.08C34.8881 14.82 34.6315 13.8983 34.1181 13.315C33.6048 12.7083 32.7881 12.405 31.6681 12.405C30.5715 12.405 29.6615 12.7433 28.9381 13.42C28.2148 14.0733 27.8531 15.0767 27.8531 16.43V27H22.7781V0.399998ZM53.1565 27.385C51.7798 27.385 50.5082 27.175 49.3415 26.755C48.1748 26.335 47.1715 25.7167 46.3315 24.9C45.4682 24.1067 44.7915 23.1383 44.3015 21.995C43.8348 20.8517 43.6015 19.545 43.6015 18.075V17.795C43.6015 16.3483 43.8348 15.0417 44.3015 13.875C44.7915 12.7083 45.4682 11.705 46.3315 10.865C47.1715 10.0483 48.1632 9.41833 49.3065 8.975C50.4498 8.50833 51.6865 8.275 53.0165 8.275C54.2065 8.275 55.3382 8.46167 56.4115 8.835C57.4848 9.185 58.4298 9.73333 59.2465 10.48C60.0632 11.2267 60.7165 12.195 61.2065 13.385C61.6965 14.5517 61.9415 15.9517 61.9415 17.585V18.985H48.7465C48.8165 20.525 49.2365 21.715 50.0065 22.555C50.7998 23.3717 51.8965 23.78 53.2965 23.78C54.4865 23.78 55.3732 23.5467 55.9565 23.08C56.5632 22.6133 56.9482 21.995 57.1115 21.225H61.9065C61.6032 23.2083 60.6932 24.7367 59.1765 25.81C57.6832 26.86 55.6765 27.385 53.1565 27.385ZM57.0065 15.87C56.9132 14.47 56.5282 13.4433 55.8515 12.79C55.1748 12.1133 54.2298 11.775 53.0165 11.775C51.8732 11.775 50.9282 12.1367 50.1815 12.86C49.4582 13.56 49.0032 14.5633 48.8165 15.87H57.0065ZM73.4324 8.695H78.5074V11.495C78.9741 10.6317 79.6741 9.885 80.6074 9.255C81.5641 8.60167 82.7308 8.275 84.1074 8.275C85.3208 8.275 86.3591 8.53167 87.2224 9.045C88.1091 9.55833 88.7741 10.3633 89.2174 11.46C89.9641 10.34 90.8858 9.535 91.9824 9.045C93.0791 8.53167 94.2108 8.275 95.3774 8.275C96.2174 8.275 96.9991 8.415 97.7224 8.695C98.4691 8.95167 99.1224 9.36 99.6824 9.92C100.219 10.5033 100.639 11.2383 100.942 12.125C101.246 13.0117 101.397 14.0617 101.397 15.275V27H96.3574V15.835C96.3574 14.645 96.1008 13.7817 95.5874 13.245C95.0974 12.7083 94.3974 12.44 93.4874 12.44C92.5074 12.44 91.6674 12.755 90.9674 13.385C90.2908 13.9917 89.9524 14.925 89.9524 16.185V27H84.9124V15.835C84.9124 14.645 84.6558 13.7817 84.1424 13.245C83.6291 12.7083 82.9291 12.44 82.0424 12.44C81.0624 12.44 80.2224 12.755 79.5224 13.385C78.8458 13.9917 78.5074 14.925 78.5074 16.185V27H73.4324V8.695ZM114.682 23.535C116.106 23.535 117.202 23.045 117.972 22.065C118.766 21.085 119.162 19.72 119.162 17.97V17.725C119.162 15.975 118.766 14.61 117.972 13.63C117.202 12.6267 116.106 12.125 114.682 12.125C113.282 12.125 112.186 12.615 111.392 13.595C110.599 14.5517 110.202 15.905 110.202 17.655V17.935C110.202 19.685 110.587 21.0617 111.357 22.065C112.127 23.045 113.236 23.535 114.682 23.535ZM114.647 27.385C113.271 27.385 111.999 27.1633 110.832 26.72C109.666 26.2767 108.651 25.6467 107.787 24.83C106.924 24.0367 106.247 23.0683 105.757 21.925C105.267 20.7583 105.022 19.4633 105.022 18.04V17.76C105.022 16.3367 105.267 15.0417 105.757 13.875C106.247 12.685 106.924 11.6817 107.787 10.865C108.651 10.0483 109.666 9.41833 110.832 8.975C112.022 8.50833 113.306 8.275 114.682 8.275C116.059 8.275 117.331 8.49667 118.497 8.94C119.687 9.38333 120.714 10.0133 121.577 10.83C122.417 11.6467 123.082 12.6383 123.572 13.805C124.062 14.9483 124.307 16.2317 124.307 17.655V17.935C124.307 19.3817 124.062 20.6883 123.572 21.855C123.082 23.0217 122.406 24.0133 121.542 24.83C120.679 25.6467 119.652 26.2767 118.462 26.72C117.296 27.1633 116.024 27.385 114.647 27.385ZM134.77 27.385C132.297 27.385 130.372 26.86 128.995 25.81C127.618 24.76 126.883 23.2433 126.79 21.26H131.515C131.632 22.0767 131.912 22.7183 132.355 23.185C132.822 23.6283 133.615 23.85 134.735 23.85C135.715 23.85 136.438 23.675 136.905 23.325C137.372 22.975 137.605 22.485 137.605 21.855C137.605 21.225 137.313 20.7583 136.73 20.455C136.17 20.1283 135.225 19.8717 133.895 19.685C132.682 19.4983 131.643 19.265 130.78 18.985C129.94 18.705 129.252 18.3433 128.715 17.9C128.155 17.4567 127.747 16.92 127.49 16.29C127.257 15.6367 127.14 14.8667 127.14 13.98C127.14 13.0233 127.338 12.195 127.735 11.495C128.155 10.7717 128.703 10.165 129.38 9.675C130.033 9.20833 130.792 8.85833 131.655 8.625C132.542 8.39167 133.452 8.275 134.385 8.275C135.388 8.275 136.322 8.38 137.185 8.59C138.072 8.77667 138.853 9.09167 139.53 9.535C140.183 9.97833 140.72 10.5617 141.14 11.285C141.56 12.0083 141.828 12.895 141.945 13.945H137.29C137.15 13.1983 136.858 12.65 136.415 12.3C135.972 11.9267 135.307 11.74 134.42 11.74C133.603 11.74 132.962 11.915 132.495 12.265C132.052 12.615 131.83 13.07 131.83 13.63C131.83 14.2133 132.087 14.645 132.6 14.925C133.113 15.205 134.035 15.4383 135.365 15.625C136.508 15.7883 137.523 15.9983 138.41 16.255C139.297 16.5117 140.043 16.85 140.65 17.27C141.233 17.7133 141.677 18.2617 141.98 18.915C142.307 19.5683 142.47 20.385 142.47 21.365C142.47 23.3483 141.793 24.8533 140.44 25.88C139.087 26.8833 137.197 27.385 134.77 27.385ZM152.783 27.35C150.847 27.35 149.377 26.8717 148.373 25.915C147.37 24.935 146.868 23.4883 146.868 21.575V12.3H144.523V8.695H146.868V4.74H151.908V8.695H155.758V12.3H151.908V21.12C151.908 21.8433 152.072 22.3917 152.398 22.765C152.748 23.115 153.262 23.29 153.938 23.29C154.312 23.29 154.65 23.2667 154.953 23.22C155.28 23.15 155.583 23.0567 155.863 22.94V26.86C155.513 26.9767 155.082 27.0817 154.568 27.175C154.055 27.2917 153.46 27.35 152.783 27.35ZM159.352 15.135H168.312V19.16H159.352V15.135ZM173.001 0.399998H178.041V27H173.001V0.399998ZM191.621 23.535C193.044 23.535 194.141 23.045 194.911 22.065C195.704 21.085 196.101 19.72 196.101 17.97V17.725C196.101 15.975 195.704 14.61 194.911 13.63C194.141 12.6267 193.044 12.125 191.621 12.125C190.221 12.125 189.124 12.615 188.331 13.595C187.538 14.5517 187.141 15.905 187.141 17.655V17.935C187.141 19.685 187.526 21.0617 188.296 22.065C189.066 23.045 190.174 23.535 191.621 23.535ZM191.586 27.385C190.209 27.385 188.938 27.1633 187.771 26.72C186.604 26.2767 185.589 25.6467 184.726 24.83C183.863 24.0367 183.186 23.0683 182.696 21.925C182.206 20.7583 181.961 19.4633 181.961 18.04V17.76C181.961 16.3367 182.206 15.0417 182.696 13.875C183.186 12.685 183.863 11.6817 184.726 10.865C185.589 10.0483 186.604 9.41833 187.771 8.975C188.961 8.50833 190.244 8.275 191.621 8.275C192.998 8.275 194.269 8.49667 195.436 8.94C196.626 9.38333 197.653 10.0133 198.516 10.83C199.356 11.6467 200.021 12.6383 200.511 13.805C201.001 14.9483 201.246 16.2317 201.246 17.655V17.935C201.246 19.3817 201.001 20.6883 200.511 21.855C200.021 23.0217 199.344 24.0133 198.481 24.83C197.618 25.6467 196.591 26.2767 195.401 26.72C194.234 27.1633 192.963 27.385 191.586 27.385ZM202.625 8.695H208.05L212.425 21.785L216.765 8.695H221.665L215.015 27H209.31L202.625 8.695ZM232.361 27.385C230.984 27.385 229.712 27.175 228.546 26.755C227.379 26.335 226.376 25.7167 225.536 24.9C224.672 24.1067 223.996 23.1383 223.506 21.995C223.039 20.8517 222.806 19.545 222.806 18.075V17.795C222.806 16.3483 223.039 15.0417 223.506 13.875C223.996 12.7083 224.672 11.705 225.536 10.865C226.376 10.0483 227.367 9.41833 228.511 8.975C229.654 8.50833 230.891 8.275 232.221 8.275C233.411 8.275 234.542 8.46167 235.616 8.835C236.689 9.185 237.634 9.73333 238.451 10.48C239.267 11.2267 239.921 12.195 240.411 13.385C240.901 14.5517 241.146 15.9517 241.146 17.585V18.985H227.951C228.021 20.525 228.441 21.715 229.211 22.555C230.004 23.3717 231.101 23.78 232.501 23.78C233.691 23.78 234.577 23.5467 235.161 23.08C235.767 22.6133 236.152 21.995 236.316 21.225H241.111C240.807 23.2083 239.897 24.7367 238.381 25.81C236.887 26.86 234.881 27.385 232.361 27.385ZM236.211 15.87C236.117 14.47 235.732 13.4433 235.056 12.79C234.379 12.1133 233.434 11.775 232.221 11.775C231.077 11.775 230.132 12.1367 229.386 12.86C228.662 13.56 228.207 14.5633 228.021 15.87H236.211ZM251.738 27.385C250.618 27.385 249.579 27.1867 248.623 26.79C247.666 26.3933 246.826 25.7983 246.103 25.005C245.379 24.235 244.808 23.2783 244.388 22.135C243.991 20.9683 243.793 19.6267 243.793 18.11V17.83C243.793 16.3367 243.991 14.995 244.388 13.805C244.808 12.615 245.379 11.6117 246.103 10.795C246.826 9.97833 247.678 9.36 248.658 8.94C249.638 8.49667 250.699 8.275 251.843 8.275C253.313 8.275 254.514 8.56667 255.448 9.15C256.381 9.73333 257.104 10.4917 257.618 11.425V0.399998H262.658V27H257.618V23.955C257.151 24.8883 256.393 25.6933 255.343 26.37C254.293 27.0467 253.091 27.385 251.738 27.385ZM253.243 23.43C254.573 23.43 255.658 22.9867 256.498 22.1C257.338 21.19 257.758 19.8017 257.758 17.935V17.655C257.758 15.835 257.373 14.47 256.603 13.56C255.856 12.6267 254.783 12.16 253.383 12.16C251.959 12.16 250.863 12.6383 250.093 13.595C249.346 14.5283 248.973 15.905 248.973 17.725V18.005C248.973 19.825 249.369 21.19 250.163 22.1C250.956 22.9867 251.983 23.43 253.243 23.43ZM282.051 27.35C280.114 27.35 278.644 26.8717 277.641 25.915C276.638 24.935 276.136 23.4883 276.136 21.575V12.3H273.791V8.695H276.136V4.74H281.176V8.695H285.026V12.3H281.176V21.12C281.176 21.8433 281.339 22.3917 281.666 22.765C282.016 23.115 282.529 23.29 283.206 23.29C283.579 23.29 283.918 23.2667 284.221 23.22C284.548 23.15 284.851 23.0567 285.131 22.94V26.86C284.781 26.9767 284.349 27.0817 283.836 27.175C283.323 27.2917 282.728 27.35 282.051 27.35ZM288.97 8.695H294.045V12.195C294.628 10.9583 295.386 10.025 296.32 9.395C297.253 8.765 298.466 8.43833 299.96 8.415V13.14C298.07 13.1167 296.611 13.455 295.585 14.155C294.558 14.855 294.045 16.08 294.045 17.83V27H288.97V8.695ZM308.294 27.385C307.454 27.385 306.661 27.28 305.914 27.07C305.191 26.86 304.549 26.5333 303.989 26.09C303.429 25.6467 302.986 25.0867 302.659 24.41C302.333 23.71 302.169 22.8817 302.169 21.925C302.169 20.8517 302.403 19.9417 302.869 19.195C303.336 18.4483 303.989 17.8417 304.829 17.375C305.669 16.9083 306.673 16.57 307.839 16.36C309.006 16.15 310.289 16.045 311.689 16.045H313.754V15.31C313.754 14.2133 313.544 13.385 313.124 12.825C312.728 12.2417 311.946 11.95 310.779 11.95C309.776 11.95 309.029 12.1833 308.539 12.65C308.073 13.1167 307.781 13.7467 307.664 14.54H302.869C302.939 13.4667 303.196 12.5333 303.639 11.74C304.106 10.9467 304.701 10.2933 305.424 9.78C306.148 9.26667 306.988 8.89333 307.944 8.66C308.924 8.40333 309.974 8.275 311.094 8.275C312.214 8.275 313.241 8.40333 314.174 8.66C315.108 8.89333 315.924 9.27833 316.624 9.815C317.301 10.3517 317.826 11.0517 318.199 11.915C318.573 12.7783 318.759 13.8283 318.759 15.065V27H313.824V24.795C313.288 25.5417 312.588 26.16 311.724 26.65C310.884 27.14 309.741 27.385 308.294 27.385ZM309.799 23.85C310.919 23.85 311.853 23.57 312.599 23.01C313.369 22.4267 313.754 21.6217 313.754 20.595V19.055H311.794C310.324 19.055 309.181 19.2417 308.364 19.615C307.548 19.9883 307.139 20.665 307.139 21.645C307.139 22.3217 307.349 22.8583 307.769 23.255C308.189 23.6517 308.866 23.85 309.799 23.85ZM323.525 8.695H328.6V11.6C329.067 10.69 329.79 9.90833 330.77 9.255C331.75 8.60167 333.01 8.275 334.55 8.275C335.46 8.275 336.289 8.415 337.035 8.695C337.782 8.975 338.435 9.395 338.995 9.955C339.532 10.5383 339.952 11.285 340.255 12.195C340.559 13.0817 340.71 14.1317 340.71 15.345V27H335.635V16.08C335.635 14.82 335.379 13.8983 334.865 13.315C334.352 12.7083 333.535 12.405 332.415 12.405C331.319 12.405 330.409 12.7433 329.685 13.42C328.962 14.0733 328.6 15.0767 328.6 16.43V27H323.525V8.695ZM352.119 27.385C349.645 27.385 347.72 26.86 346.344 25.81C344.967 24.76 344.232 23.2433 344.139 21.26H348.864C348.98 22.0767 349.26 22.7183 349.704 23.185C350.17 23.6283 350.964 23.85 352.084 23.85C353.064 23.85 353.787 23.675 354.254 23.325C354.72 22.975 354.954 22.485 354.954 21.855C354.954 21.225 354.662 20.7583 354.079 20.455C353.519 20.1283 352.574 19.8717 351.244 19.685C350.03 19.4983 348.992 19.265 348.129 18.985C347.289 18.705 346.6 18.3433 346.064 17.9C345.504 17.4567 345.095 16.92 344.839 16.29C344.605 15.6367 344.489 14.8667 344.489 13.98C344.489 13.0233 344.687 12.195 345.084 11.495C345.504 10.7717 346.052 10.165 346.729 9.675C347.382 9.20833 348.14 8.85833 349.004 8.625C349.89 8.39167 350.8 8.275 351.734 8.275C352.737 8.275 353.67 8.38 354.534 8.59C355.42 8.77667 356.202 9.09167 356.879 9.535C357.532 9.97833 358.069 10.5617 358.489 11.285C358.909 12.0083 359.177 12.895 359.294 13.945H354.639C354.499 13.1983 354.207 12.65 353.764 12.3C353.32 11.9267 352.655 11.74 351.769 11.74C350.952 11.74 350.31 11.915 349.844 12.265C349.4 12.615 349.179 13.07 349.179 13.63C349.179 14.2133 349.435 14.645 349.949 14.925C350.462 15.205 351.384 15.4383 352.714 15.625C353.857 15.7883 354.872 15.9983 355.759 16.255C356.645 16.5117 357.392 16.85 357.999 17.27C358.582 17.7133 359.025 18.2617 359.329 18.915C359.655 19.5683 359.819 20.385 359.819 21.365C359.819 23.3483 359.142 24.8533 357.789 25.88C356.435 26.8833 354.545 27.385 352.119 27.385ZM363.587 0.399998H368.627V27H363.587V0.399998ZM378.602 27.385C377.762 27.385 376.968 27.28 376.222 27.07C375.498 26.86 374.857 26.5333 374.297 26.09C373.737 25.6467 373.293 25.0867 372.967 24.41C372.64 23.71 372.477 22.8817 372.477 21.925C372.477 20.8517 372.71 19.9417 373.177 19.195C373.643 18.4483 374.297 17.8417 375.137 17.375C375.977 16.9083 376.98 16.57 378.147 16.36C379.313 16.15 380.597 16.045 381.997 16.045H384.062V15.31C384.062 14.2133 383.852 13.385 383.432 12.825C383.035 12.2417 382.253 11.95 381.087 11.95C380.083 11.95 379.337 12.1833 378.847 12.65C378.38 13.1167 378.088 13.7467 377.972 14.54H373.177C373.247 13.4667 373.503 12.5333 373.947 11.74C374.413 10.9467 375.008 10.2933 375.732 9.78C376.455 9.26667 377.295 8.89333 378.252 8.66C379.232 8.40333 380.282 8.275 381.402 8.275C382.522 8.275 383.548 8.40333 384.482 8.66C385.415 8.89333 386.232 9.27833 386.932 9.815C387.608 10.3517 388.133 11.0517 388.507 11.915C388.88 12.7783 389.067 13.8283 389.067 15.065V27H384.132V24.795C383.595 25.5417 382.895 26.16 382.032 26.65C381.192 27.14 380.048 27.385 378.602 27.385ZM380.107 23.85C381.227 23.85 382.16 23.57 382.907 23.01C383.677 22.4267 384.062 21.6217 384.062 20.595V19.055H382.102C380.632 19.055 379.488 19.2417 378.672 19.615C377.855 19.9883 377.447 20.665 377.447 21.645C377.447 22.3217 377.657 22.8583 378.077 23.255C378.497 23.6517 379.173 23.85 380.107 23.85ZM400.518 27.35C398.581 27.35 397.111 26.8717 396.108 25.915C395.104 24.935 394.603 23.4883 394.603 21.575V12.3H392.258V8.695H394.603V4.74H399.643V8.695H403.493V12.3H399.643V21.12C399.643 21.8433 399.806 22.3917 400.133 22.765C400.483 23.115 400.996 23.29 401.673 23.29C402.046 23.29 402.384 23.2667 402.688 23.22C403.014 23.15 403.318 23.0567 403.598 22.94V26.86C403.248 26.9767 402.816 27.0817 402.303 27.175C401.789 27.2917 401.194 27.35 400.518 27.35ZM410.061 6.21C409.245 6.21 408.556 5.95333 407.996 5.44C407.46 4.90333 407.191 4.23833 407.191 3.445C407.191 2.65167 407.46 1.99833 407.996 1.485C408.556 0.948332 409.245 0.679999 410.061 0.679999C410.878 0.679999 411.566 0.948332 412.126 1.485C412.686 1.99833 412.966 2.65167 412.966 3.445C412.966 4.23833 412.686 4.90333 412.126 5.44C411.566 5.95333 410.878 6.21 410.061 6.21ZM407.576 8.695H412.616V27H407.576V8.695ZM426.23 23.535C427.654 23.535 428.75 23.045 429.52 22.065C430.314 21.085 430.71 19.72 430.71 17.97V17.725C430.71 15.975 430.314 14.61 429.52 13.63C428.75 12.6267 427.654 12.125 426.23 12.125C424.83 12.125 423.734 12.615 422.94 13.595C422.147 14.5517 421.75 15.905 421.75 17.655V17.935C421.75 19.685 422.135 21.0617 422.905 22.065C423.675 23.045 424.784 23.535 426.23 23.535ZM426.195 27.385C424.819 27.385 423.547 27.1633 422.38 26.72C421.214 26.2767 420.199 25.6467 419.335 24.83C418.472 24.0367 417.795 23.0683 417.305 21.925C416.815 20.7583 416.57 19.4633 416.57 18.04V17.76C416.57 16.3367 416.815 15.0417 417.305 13.875C417.795 12.685 418.472 11.6817 419.335 10.865C420.199 10.0483 421.214 9.41833 422.38 8.975C423.57 8.50833 424.854 8.275 426.23 8.275C427.607 8.275 428.879 8.49667 430.045 8.94C431.235 9.38333 432.262 10.0133 433.125 10.83C433.965 11.6467 434.63 12.6383 435.12 13.805C435.61 14.9483 435.855 16.2317 435.855 17.655V17.935C435.855 19.3817 435.61 20.6883 435.12 21.855C434.63 23.0217 433.954 24.0133 433.09 24.83C432.227 25.6467 431.2 26.2767 430.01 26.72C428.844 27.1633 427.572 27.385 426.195 27.385ZM439.668 8.695H444.743V11.6C445.209 10.69 445.933 9.90833 446.913 9.255C447.893 8.60167 449.153 8.275 450.693 8.275C451.603 8.275 452.431 8.415 453.178 8.695C453.924 8.975 454.578 9.395 455.138 9.955C455.674 10.5383 456.094 11.285 456.398 12.195C456.701 13.0817 456.853 14.1317 456.853 15.345V27H451.778V16.08C451.778 14.82 451.521 13.8983 451.008 13.315C450.494 12.7083 449.678 12.405 448.558 12.405C447.461 12.405 446.551 12.7433 445.828 13.42C445.104 14.0733 444.743 15.0767 444.743 16.43V27H439.668V8.695ZM1.45 58.695H6.525V61.495C6.99167 60.6317 7.69167 59.885 8.625 59.255C9.58167 58.6017 10.7483 58.275 12.125 58.275C13.3383 58.275 14.3767 58.5317 15.24 59.045C16.1267 59.5583 16.7917 60.3633 17.235 61.46C17.9817 60.34 18.9033 59.535 20 59.045C21.0967 58.5317 22.2283 58.275 23.395 58.275C24.235 58.275 25.0167 58.415 25.74 58.695C26.4867 58.9517 27.14 59.36 27.7 59.92C28.2367 60.5033 28.6567 61.2383 28.96 62.125C29.2633 63.0117 29.415 64.0617 29.415 65.275V77H24.375V65.835C24.375 64.645 24.1183 63.7817 23.605 63.245C23.115 62.7083 22.415 62.44 21.505 62.44C20.525 62.44 19.685 62.755 18.985 63.385C18.3083 63.9917 17.97 64.925 17.97 66.185V77H12.93V65.835C12.93 64.645 12.6733 63.7817 12.16 63.245C11.6467 62.7083 10.9467 62.44 10.06 62.44C9.08 62.44 8.24 62.755 7.54 63.385C6.86333 63.9917 6.525 64.925 6.525 66.185V77H1.45V58.695ZM39.095 77.385C38.255 77.385 37.4616 77.28 36.715 77.07C35.9916 76.86 35.35 76.5333 34.79 76.09C34.23 75.6467 33.7866 75.0867 33.46 74.41C33.1333 73.71 32.97 72.8817 32.97 71.925C32.97 70.8517 33.2033 69.9417 33.67 69.195C34.1366 68.4483 34.79 67.8417 35.63 67.375C36.47 66.9083 37.4733 66.57 38.64 66.36C39.8066 66.15 41.09 66.045 42.49 66.045H44.555V65.31C44.555 64.2133 44.345 63.385 43.925 62.825C43.5283 62.2417 42.7466 61.95 41.58 61.95C40.5766 61.95 39.83 62.1833 39.34 62.65C38.8733 63.1167 38.5816 63.7467 38.465 64.54H33.67C33.74 63.4667 33.9966 62.5333 34.44 61.74C34.9066 60.9467 35.5016 60.2933 36.225 59.78C36.9483 59.2667 37.7883 58.8933 38.745 58.66C39.725 58.4033 40.775 58.275 41.895 58.275C43.015 58.275 44.0416 58.4033 44.975 58.66C45.9083 58.8933 46.725 59.2783 47.425 59.815C48.1016 60.3517 48.6266 61.0517 49 61.915C49.3733 62.7783 49.56 63.8283 49.56 65.065V77H44.625V74.795C44.0883 75.5417 43.3883 76.16 42.525 76.65C41.685 77.14 40.5416 77.385 39.095 77.385ZM40.6 73.85C41.72 73.85 42.6533 73.57 43.4 73.01C44.17 72.4267 44.555 71.6217 44.555 70.595V69.055H42.595C41.125 69.055 39.9816 69.2417 39.165 69.615C38.3483 69.9883 37.94 70.665 37.94 71.645C37.94 72.3217 38.15 72.8583 38.57 73.255C38.99 73.6517 39.6666 73.85 40.6 73.85ZM54.326 58.695H59.401V61.6C59.8676 60.69 60.591 59.9083 61.571 59.255C62.551 58.6017 63.811 58.275 65.351 58.275C66.261 58.275 67.0893 58.415 67.836 58.695C68.5826 58.975 69.236 59.395 69.796 59.955C70.3326 60.5383 70.7526 61.285 71.056 62.195C71.3593 63.0817 71.511 64.1317 71.511 65.345V77H66.436V66.08C66.436 64.82 66.1793 63.8983 65.666 63.315C65.1526 62.7083 64.336 62.405 63.216 62.405C62.1193 62.405 61.2093 62.7433 60.486 63.42C59.7626 64.0733 59.401 65.0767 59.401 66.43V77H54.326V58.695ZM81.2043 77.385C80.3643 77.385 79.571 77.28 78.8243 77.07C78.101 76.86 77.4593 76.5333 76.8993 76.09C76.3393 75.6467 75.896 75.0867 75.5693 74.41C75.2427 73.71 75.0793 72.8817 75.0793 71.925C75.0793 70.8517 75.3127 69.9417 75.7793 69.195C76.246 68.4483 76.8993 67.8417 77.7393 67.375C78.5793 66.9083 79.5827 66.57 80.7493 66.36C81.916 66.15 83.1993 66.045 84.5993 66.045H86.6643V65.31C86.6643 64.2133 86.4543 63.385 86.0343 62.825C85.6377 62.2417 84.856 61.95 83.6893 61.95C82.686 61.95 81.9393 62.1833 81.4493 62.65C80.9827 63.1167 80.691 63.7467 80.5743 64.54H75.7793C75.8493 63.4667 76.106 62.5333 76.5493 61.74C77.016 60.9467 77.611 60.2933 78.3343 59.78C79.0577 59.2667 79.8977 58.8933 80.8543 58.66C81.8343 58.4033 82.8843 58.275 84.0043 58.275C85.1243 58.275 86.151 58.4033 87.0843 58.66C88.0177 58.8933 88.8343 59.2783 89.5343 59.815C90.211 60.3517 90.736 61.0517 91.1093 61.915C91.4827 62.7783 91.6693 63.8283 91.6693 65.065V77H86.7343V74.795C86.1977 75.5417 85.4977 76.16 84.6343 76.65C83.7943 77.14 82.651 77.385 81.2043 77.385ZM82.7093 73.85C83.8293 73.85 84.7627 73.57 85.5093 73.01C86.2793 72.4267 86.6643 71.6217 86.6643 70.595V69.055H84.7043C83.2343 69.055 82.091 69.2417 81.2743 69.615C80.4577 69.9883 80.0493 70.665 80.0493 71.645C80.0493 72.3217 80.2593 72.8583 80.6793 73.255C81.0993 73.6517 81.776 73.85 82.7093 73.85ZM104.555 83.755C103.085 83.755 101.802 83.6033 100.705 83.3C99.6087 82.9967 98.6987 82.565 97.9754 82.005C97.2287 81.445 96.6454 80.7683 96.2254 79.975C95.8287 79.205 95.572 78.3417 95.4554 77.385H100.495C100.659 78.2017 101.044 78.8433 101.65 79.31C102.28 79.8 103.249 80.045 104.555 80.045C106.095 80.045 107.25 79.66 108.02 78.89C108.79 78.12 109.175 77.0117 109.175 75.565V72.8C108.919 73.2433 108.592 73.675 108.195 74.095C107.822 74.4917 107.379 74.8417 106.865 75.145C106.352 75.4717 105.792 75.7283 105.185 75.915C104.602 76.1017 103.972 76.195 103.295 76.195C102.175 76.195 101.125 75.9967 100.145 75.6C99.1887 75.18 98.3604 74.5967 97.6604 73.85C96.937 73.1033 96.3654 72.1933 95.9454 71.12C95.5254 70.0233 95.3154 68.7983 95.3154 67.445V67.2C95.3154 65.8933 95.5137 64.6917 95.9104 63.595C96.3304 62.4983 96.902 61.5533 97.6254 60.76C98.3487 59.99 99.2004 59.3833 100.18 58.94C101.16 58.4967 102.222 58.275 103.365 58.275C104.859 58.275 106.06 58.5667 106.97 59.15C107.904 59.7333 108.639 60.4917 109.175 61.425V58.695H114.215V75.565C114.192 78.295 113.329 80.3367 111.625 81.69C109.945 83.0667 107.589 83.755 104.555 83.755ZM104.8 72.38C106.13 72.38 107.215 71.9367 108.055 71.05C108.895 70.1633 109.315 68.9383 109.315 67.375V67.13C109.315 65.5667 108.93 64.3417 108.16 63.455C107.39 62.5683 106.305 62.125 104.905 62.125C103.482 62.125 102.385 62.5917 101.615 63.525C100.869 64.435 100.495 65.6483 100.495 67.165V67.445C100.495 68.985 100.892 70.1983 101.685 71.085C102.502 71.9483 103.54 72.38 104.8 72.38ZM127.566 77.385C126.189 77.385 124.917 77.175 123.751 76.755C122.584 76.335 121.581 75.7167 120.741 74.9C119.877 74.1067 119.201 73.1383 118.711 71.995C118.244 70.8517 118.011 69.545 118.011 68.075V67.795C118.011 66.3483 118.244 65.0417 118.711 63.875C119.201 62.7083 119.877 61.705 120.741 60.865C121.581 60.0483 122.572 59.4183 123.716 58.975C124.859 58.5083 126.096 58.275 127.426 58.275C128.616 58.275 129.747 58.4617 130.821 58.835C131.894 59.185 132.839 59.7333 133.656 60.48C134.472 61.2267 135.126 62.195 135.616 63.385C136.106 64.5517 136.351 65.9517 136.351 67.585V68.985H123.156C123.226 70.525 123.646 71.715 124.416 72.555C125.209 73.3717 126.306 73.78 127.706 73.78C128.896 73.78 129.782 73.5467 130.366 73.08C130.972 72.6133 131.357 71.995 131.521 71.225H136.316C136.012 73.2083 135.102 74.7367 133.586 75.81C132.092 76.86 130.086 77.385 127.566 77.385ZM131.416 65.87C131.322 64.47 130.937 63.4433 130.261 62.79C129.584 62.1133 128.639 61.775 127.426 61.775C126.282 61.775 125.337 62.1367 124.591 62.86C123.867 63.56 123.412 64.5633 123.226 65.87H131.416ZM140.083 58.695H145.158V61.495C145.624 60.6317 146.324 59.885 147.258 59.255C148.214 58.6017 149.381 58.275 150.758 58.275C151.971 58.275 153.009 58.5317 153.873 59.045C154.759 59.5583 155.424 60.3633 155.868 61.46C156.614 60.34 157.536 59.535 158.633 59.045C159.729 58.5317 160.861 58.275 162.028 58.275C162.868 58.275 163.649 58.415 164.373 58.695C165.119 58.9517 165.773 59.36 166.333 59.92C166.869 60.5033 167.289 61.2383 167.593 62.125C167.896 63.0117 168.048 64.0617 168.048 65.275V77H163.008V65.835C163.008 64.645 162.751 63.7817 162.238 63.245C161.748 62.7083 161.048 62.44 160.138 62.44C159.158 62.44 158.318 62.755 157.618 63.385C156.941 63.9917 156.603 64.925 156.603 66.185V77H151.563V65.835C151.563 64.645 151.306 63.7817 150.793 63.245C150.279 62.7083 149.579 62.44 148.693 62.44C147.713 62.44 146.873 62.755 146.173 63.385C145.496 63.9917 145.158 64.925 145.158 66.185V77H140.083V58.695ZM181.228 77.385C179.851 77.385 178.579 77.175 177.413 76.755C176.246 76.335 175.243 75.7167 174.403 74.9C173.539 74.1067 172.863 73.1383 172.373 71.995C171.906 70.8517 171.673 69.545 171.673 68.075V67.795C171.673 66.3483 171.906 65.0417 172.373 63.875C172.863 62.7083 173.539 61.705 174.403 60.865C175.243 60.0483 176.234 59.4183 177.378 58.975C178.521 58.5083 179.758 58.275 181.088 58.275C182.278 58.275 183.409 58.4617 184.483 58.835C185.556 59.185 186.501 59.7333 187.318 60.48C188.134 61.2267 188.788 62.195 189.278 63.385C189.768 64.5517 190.013 65.9517 190.013 67.585V68.985H176.818C176.888 70.525 177.308 71.715 178.078 72.555C178.871 73.3717 179.968 73.78 181.368 73.78C182.558 73.78 183.444 73.5467 184.028 73.08C184.634 72.6133 185.019 71.995 185.183 71.225H189.978C189.674 73.2083 188.764 74.7367 187.248 75.81C185.754 76.86 183.748 77.385 181.228 77.385ZM185.078 65.87C184.984 64.47 184.599 63.4433 183.923 62.79C183.246 62.1133 182.301 61.775 181.088 61.775C179.944 61.775 178.999 62.1367 178.253 62.86C177.529 63.56 177.074 64.5633 176.888 65.87H185.078ZM193.745 58.695H198.82V61.6C199.287 60.69 200.01 59.9083 200.99 59.255C201.97 58.6017 203.23 58.275 204.77 58.275C205.68 58.275 206.508 58.415 207.255 58.695C208.002 58.975 208.655 59.395 209.215 59.955C209.752 60.5383 210.172 61.285 210.475 62.195C210.778 63.0817 210.93 64.1317 210.93 65.345V77H205.855V66.08C205.855 64.82 205.598 63.8983 205.085 63.315C204.572 62.7083 203.755 62.405 202.635 62.405C201.538 62.405 200.628 62.7433 199.905 63.42C199.182 64.0733 198.82 65.0767 198.82 66.43V77H193.745V58.695ZM222.373 77.35C220.437 77.35 218.967 76.8717 217.963 75.915C216.96 74.935 216.458 73.4883 216.458 71.575V62.3H214.113V58.695H216.458V54.74H221.498V58.695H225.348V62.3H221.498V71.12C221.498 71.8433 221.662 72.3917 221.988 72.765C222.338 73.115 222.852 73.29 223.528 73.29C223.902 73.29 224.24 73.2667 224.543 73.22C224.87 73.15 225.173 73.0567 225.453 72.94V76.86C225.103 76.9767 224.672 77.0817 224.158 77.175C223.645 77.2917 223.05 77.35 222.373 77.35ZM243.701 77.385C241.227 77.385 239.302 76.86 237.926 75.81C236.549 74.76 235.814 73.2433 235.721 71.26H240.446C240.562 72.0767 240.842 72.7183 241.286 73.185C241.752 73.6283 242.546 73.85 243.666 73.85C244.646 73.85 245.369 73.675 245.836 73.325C246.302 72.975 246.536 72.485 246.536 71.855C246.536 71.225 246.244 70.7583 245.661 70.455C245.101 70.1283 244.156 69.8717 242.826 69.685C241.612 69.4983 240.574 69.265 239.711 68.985C238.871 68.705 238.182 68.3433 237.646 67.9C237.086 67.4567 236.677 66.92 236.421 66.29C236.187 65.6367 236.071 64.8667 236.071 63.98C236.071 63.0233 236.269 62.195 236.666 61.495C237.086 60.7717 237.634 60.165 238.311 59.675C238.964 59.2083 239.722 58.8583 240.586 58.625C241.472 58.3917 242.382 58.275 243.316 58.275C244.319 58.275 245.252 58.38 246.116 58.59C247.002 58.7767 247.784 59.0917 248.461 59.535C249.114 59.9783 249.651 60.5617 250.071 61.285C250.491 62.0083 250.759 62.895 250.876 63.945H246.221C246.081 63.1983 245.789 62.65 245.346 62.3C244.902 61.9267 244.237 61.74 243.351 61.74C242.534 61.74 241.892 61.915 241.426 62.265C240.982 62.615 240.761 63.07 240.761 63.63C240.761 64.2133 241.017 64.645 241.531 64.925C242.044 65.205 242.966 65.4383 244.296 65.625C245.439 65.7883 246.454 65.9983 247.341 66.255C248.227 66.5117 248.974 66.85 249.581 67.27C250.164 67.7133 250.607 68.2617 250.911 68.915C251.237 69.5683 251.401 70.385 251.401 71.365C251.401 73.3483 250.724 74.8533 249.371 75.88C248.017 76.8833 246.127 77.385 243.701 77.385ZM263.569 73.535C264.992 73.535 266.089 73.045 266.859 72.065C267.652 71.085 268.049 69.72 268.049 67.97V67.725C268.049 65.975 267.652 64.61 266.859 63.63C266.089 62.6267 264.992 62.125 263.569 62.125C262.169 62.125 261.072 62.615 260.279 63.595C259.486 64.5517 259.089 65.905 259.089 67.655V67.935C259.089 69.685 259.474 71.0617 260.244 72.065C261.014 73.045 262.122 73.535 263.569 73.535ZM263.534 77.385C262.157 77.385 260.886 77.1633 259.719 76.72C258.552 76.2767 257.537 75.6467 256.674 74.83C255.811 74.0367 255.134 73.0683 254.644 71.925C254.154 70.7583 253.909 69.4633 253.909 68.04V67.76C253.909 66.3367 254.154 65.0417 254.644 63.875C255.134 62.685 255.811 61.6817 256.674 60.865C257.537 60.0483 258.552 59.4183 259.719 58.975C260.909 58.5083 262.192 58.275 263.569 58.275C264.946 58.275 266.217 58.4967 267.384 58.94C268.574 59.3833 269.601 60.0133 270.464 60.83C271.304 61.6467 271.969 62.6383 272.459 63.805C272.949 64.9483 273.194 66.2317 273.194 67.655V67.935C273.194 69.3817 272.949 70.6883 272.459 71.855C271.969 73.0217 271.292 74.0133 270.429 74.83C269.566 75.6467 268.539 76.2767 267.349 76.72C266.182 77.1633 264.911 77.385 263.534 77.385ZM277.847 62.3H275.432V58.695H277.847V56.595C277.847 54.4483 278.418 52.85 279.562 51.8C280.728 50.7267 282.338 50.19 284.392 50.19C284.928 50.19 285.395 50.225 285.792 50.295C286.212 50.3417 286.62 50.4233 287.017 50.54V54.355C286.76 54.2617 286.48 54.1917 286.177 54.145C285.873 54.075 285.535 54.04 285.162 54.04C284.345 54.04 283.762 54.2733 283.412 54.74C283.062 55.1833 282.887 55.755 282.887 56.455V58.695H286.877V62.3H282.887V77H277.847V62.3ZM297.261 77.35C295.324 77.35 293.854 76.8717 292.851 75.915C291.848 74.935 291.346 73.4883 291.346 71.575V62.3H289.001V58.695H291.346V54.74H296.386V58.695H300.236V62.3H296.386V71.12C296.386 71.8433 296.549 72.3917 296.876 72.765C297.226 73.115 297.739 73.29 298.416 73.29C298.789 73.29 299.128 73.2667 299.431 73.22C299.758 73.15 300.061 73.0567 300.341 72.94V76.86C299.991 76.9767 299.559 77.0817 299.046 77.175C298.533 77.2917 297.938 77.35 297.261 77.35ZM302.499 58.695H307.819L311.074 71.015L314.609 58.695H318.774L321.994 71.015L325.459 58.695H330.324L324.549 77H319.579L316.464 65.52L313.104 77H308.064L302.499 58.695ZM337.928 77.385C337.088 77.385 336.295 77.28 335.548 77.07C334.825 76.86 334.183 76.5333 333.623 76.09C333.063 75.6467 332.62 75.0867 332.293 74.41C331.966 73.71 331.803 72.8817 331.803 71.925C331.803 70.8517 332.036 69.9417 332.503 69.195C332.97 68.4483 333.623 67.8417 334.463 67.375C335.303 66.9083 336.306 66.57 337.473 66.36C338.64 66.15 339.923 66.045 341.323 66.045H343.388V65.31C343.388 64.2133 343.178 63.385 342.758 62.825C342.361 62.2417 341.58 61.95 340.413 61.95C339.41 61.95 338.663 62.1833 338.173 62.65C337.706 63.1167 337.415 63.7467 337.298 64.54H332.503C332.573 63.4667 332.83 62.5333 333.273 61.74C333.74 60.9467 334.335 60.2933 335.058 59.78C335.781 59.2667 336.621 58.8933 337.578 58.66C338.558 58.4033 339.608 58.275 340.728 58.275C341.848 58.275 342.875 58.4033 343.808 58.66C344.741 58.8933 345.558 59.2783 346.258 59.815C346.935 60.3517 347.46 61.0517 347.833 61.915C348.206 62.7783 348.393 63.8283 348.393 65.065V77H343.458V74.795C342.921 75.5417 342.221 76.16 341.358 76.65C340.518 77.14 339.375 77.385 337.928 77.385ZM339.433 73.85C340.553 73.85 341.486 73.57 342.233 73.01C343.003 72.4267 343.388 71.6217 343.388 70.595V69.055H341.428C339.958 69.055 338.815 69.2417 337.998 69.615C337.181 69.9883 336.773 70.665 336.773 71.645C336.773 72.3217 336.983 72.8583 337.403 73.255C337.823 73.6517 338.5 73.85 339.433 73.85ZM353.159 58.695H358.234V62.195C358.817 60.9583 359.576 60.025 360.509 59.395C361.442 58.765 362.656 58.4383 364.149 58.415V63.14C362.259 63.1167 360.801 63.455 359.774 64.155C358.747 64.855 358.234 66.08 358.234 67.83V77H353.159V58.695ZM375.984 77.385C374.607 77.385 373.335 77.175 372.169 76.755C371.002 76.335 369.999 75.7167 369.159 74.9C368.295 74.1067 367.619 73.1383 367.129 71.995C366.662 70.8517 366.429 69.545 366.429 68.075V67.795C366.429 66.3483 366.662 65.0417 367.129 63.875C367.619 62.7083 368.295 61.705 369.159 60.865C369.999 60.0483 370.99 59.4183 372.134 58.975C373.277 58.5083 374.514 58.275 375.844 58.275C377.034 58.275 378.165 58.4617 379.239 58.835C380.312 59.185 381.257 59.7333 382.074 60.48C382.89 61.2267 383.544 62.195 384.034 63.385C384.524 64.5517 384.769 65.9517 384.769 67.585V68.985H371.574C371.644 70.525 372.064 71.715 372.834 72.555C373.627 73.3717 374.724 73.78 376.124 73.78C377.314 73.78 378.2 73.5467 378.784 73.08C379.39 72.6133 379.775 71.995 379.939 71.225H384.734C384.43 73.2083 383.52 74.7367 382.004 75.81C380.51 76.86 378.504 77.385 375.984 77.385ZM379.834 65.87C379.74 64.47 379.355 63.4433 378.679 62.79C378.002 62.1133 377.057 61.775 375.844 61.775C374.7 61.775 373.755 62.1367 373.009 62.86C372.285 63.56 371.83 64.5633 371.644 65.87H379.834Z" fill="black"/>
</svg>
